 <svg  version="1.0" xmlns="http://www.w3.org/2000/svg"  width="240.000000pt" height="240.000000pt" viewBox="0 0 240.000000 240.000000"  preserveAspectRatio="xMidYMid meet">  <g transform="translate(0.000000,240.000000) scale(0.050000,-0.050000)" fill="#8366f4" stroke="none"> <path d="M2170 4480 c-166 -109 -160 -362 10 -450 l60 -31 0 -216 c0 -119 6 -365 13 -546 l13 -330 -108 -22 c-969 -196 -844 -1616 142 -1615 743 2 1094 909 546 1410 l-112 103 200 196 c153 150 224 205 305 235 l104 39 67 -67 c182 -182 462 65 292 259 -110 125 -273 109 -332 -33 -22 -52 -45 -72 -95 -82 -141 -30 -295 -151 -534 -423 l-56 -63 10 223 c12 270 30 313 200 481 173 171 249 213 301 166 111 -101 335 25 331 185 -7 288 -427 279 -427 -9 0 -66 -9 -90 -36 -99 -20 -6 -121 -96 -225 -201 -221 -221 -235 -254 -237 -545 -1 -113 -5 -205 -9 -205 -4 0 -33 8 -65 18 -32 10 -83 24 -113 31 l-55 12 0 546 0 546 70 33 c138 66 190 239 111 368 -75 123 -253 164 -371 86z m255 -116 c50 -43 46 -160 -8 -218 -92 -98 -264 -24 -264 114 0 134 164 197 272 104z m984 -388 c64 -93 8 -216 -99 -216 -27 0 -68 18 -90 40 -22 22 -40 63 -40 90 0 115 165 177 229 86z m227 -547 c91 -64 37 -229 -76 -229 -113 0 -168 153 -80 224 55 44 97 46 156 5z m-1280 -664 c6 -96 10 -105 54 -105 53 0 278 -79 264 -92 -4 -5 -40 5 -80 22 -330 137 -723 -141 -719 -510 3 -352 345 -610 675 -511 118 36 138 27 47 -21 -40 -20 -130 -38 -220 -44 -659 -39 -866 897 -247 1119 l130 47 0 106 c0 161 87 151 96 -11z m345 -250 c96 -58 239 -222 239 -275 0 -29 -406 1 -472 34 -140 71 -288 -23 -288 -184 0 -158 141 -240 290 -170 108 51 470 66 470 20 0 -66 -189 -300 -242 -300 -11 0 -16 -7 -11 -15 11 -18 -48 -26 -238 -31 -332 -9 -558 265 -489 596 68 327 454 496 741 325z"/> <path d="M2231 4329 c-36 -37 -39 -76 -10 -130 29 -55 150 -54 179 2 59 109 -81 215 -169 128z"/> <path d="M3244 3956 c-13 -13 -24 -43 -24 -66 0 -23 11 -53 24 -66 13 -13 43 -24 66 -24 23 0 53 11 66 24 13 13 24 43 24 66 0 23 -11 53 -24 66 -13 13 -43 24 -66 24 -23 0 -53 -11 -66 -24z"/> <path d="M3504 3396 c-64 -64 -3 -170 86 -148 47 12 61 42 50 112 -8 58 -92 80 -136 36z"/> <path d="M1159 4104 c-148 -66 -196 -192 -121 -316 73 -121 258 -140 341 -35 l40 51 65 -41 c204 -126 375 -399 405 -643 29 -251 31 -256 72 -245 46 12 52 115 18 325 -36 226 -253 536 -442 631 -53 27 -97 63 -97 80 0 124 -171 241 -281 193z m161 -124 c78 -78 11 -220 -104 -220 -48 0 -136 87 -136 135 0 114 155 170 240 85z"/> <path d="M1142 3936 c-24 -65 -4 -115 51 -128 58 -15 107 22 107 80 0 93 -127 131 -158 48z"/> <path d="M898 3462 c-148 -149 30 -371 220 -273 34 17 62 41 62 52 0 99 238 -28 452 -242 169 -169 190 -184 232 -165 85 39 -332 429 -521 486 -83 26 -143 55 -143 70 0 112 -211 162 -302 72z m211 -61 c82 -91 -35 -221 -138 -153 -55 36 -70 125 -27 168 37 37 126 29 165 -15z"/> <path d="M1267 1141 c-115 -48 -140 -191 -49 -283 66 -65 117 -72 201 -29 181 94 37 390 -152 312z m129 -72 c53 -37 58 -120 11 -172 -65 -72 -187 -18 -187 83 0 55 59 120 110 120 12 0 41 -14 66 -31z"/> <path d="M2445 1147 c-39 -16 -35 -347 4 -347 21 0 31 31 35 115 l6 115 45 -85 c25 -47 54 -85 65 -85 11 0 40 38 65 85 l45 85 6 -115 c10 -201 64 -155 64 55 0 175 -53 248 -91 126 -8 -24 -30 -70 -50 -102 l-36 -59 -63 112 c-35 62 -65 112 -67 111 -2 0 -14 -6 -28 -11z"/> <path d="M2917 1130 c-191 -106 -39 -396 157 -302 53 25 66 40 49 57 -16 16 -35 16 -70 -3 -96 -52 -203 60 -143 150 42 64 81 79 141 51 33 -15 52 -15 61 -1 34 57 -115 93 -195 48z"/> <path d="M3180 983 c0 -149 6 -183 30 -183 20 0 30 20 30 60 0 57 5 60 79 60 192 0 161 210 -34 233 l-105 13 0 -183z m168 105 c50 -19 40 -101 -13 -115 -83 -23 -95 -15 -95 57 0 72 30 88 108 58z"/> <path d="M1560 947 c0 -59 0 -114 0 -122 0 -8 11 -15 25 -15 17 0 23 26 19 81 -8 93 30 140 95 119 34 -10 41 -29 41 -111 0 -75 7 -99 30 -99 23 0 30 24 30 99 0 127 -34 162 -152 158 l-88 -3 0 -107z"/> <path d="M1873 1023 c-91 -100 28 -267 146 -203 57 30 52 67 -7 52 -54 -13 -112 2 -112 30 0 10 41 18 90 18 76 0 90 6 90 39 0 92 -141 137 -207 64z m115 -15 c53 -20 36 -48 -28 -48 -60 0 -81 28 -35 47 14 5 27 11 28 11 2 1 18 -3 35 -10z"/> </g> </svg> 